<?xml version="1.0" encoding="utf-8"?>
<!-- Generator: Adobe Illustrator 22.0.1, SVG Export Plug-In . SVG Version: 6.00 Build 0)  -->
<svg version="1.1" id="Layer_1" xmlns="http://www.w3.org/2000/svg" xmlns:xlink="http://www.w3.org/1999/xlink" x="0px" y="0px"
	 viewBox="0 0 42.1 42.3" style="enable-background:new 0 0 42.1 42.3;" xml:space="preserve">
<style type="text/css">
	.st0{fill:none;}
	.st1{fill:#EE715E;}
</style>
<g>
	<path class="st0" d="M21,2.2c-10.5,0-19,8.5-19,19s8.5,19,19,19c10.5,0,19-8.5,19-19S31.5,2.2,21,2.2z M22.9,30.4L21.5,29l6.8-6.8
		H10.4v-2h17.9l-6.8-6.8l1.4-1.4l9.2,9.2L22.9,30.4z"/>
	<path class="st1" d="M21,0.2c-11.6,0-21,9.4-21,21c0,11.6,9.4,21,21,21s21-9.4,21-21C42,9.6,32.6,0.2,21,0.2z M21,40.2
		c-10.5,0-19-8.5-19-19s8.5-19,19-19c10.5,0,19,8.5,19,19S31.5,40.2,21,40.2z"/>
	<polygon class="st1" points="21.5,13.4 28.3,20.2 10.4,20.2 10.4,22.2 28.3,22.2 21.5,29 22.9,30.4 32.1,21.2 22.9,11.9 	"/>
</g>
</svg>
