<?xml version="1.0" encoding="utf-8"?>
<!-- Generator: Adobe Illustrator 22.0.1, SVG Export Plug-In . SVG Version: 6.00 Build 0)  -->
<svg version="1.1" id="Layer_1" xmlns="http://www.w3.org/2000/svg" xmlns:xlink="http://www.w3.org/1999/xlink" x="0px" y="0px"
	 viewBox="0 0 162.8 163.2" style="enable-background:new 0 0 162.8 163.2;" xml:space="preserve">
<style type="text/css">
	.st0{fill:#FFFFFF;}
</style>
<polygon class="st0" points="87.7,50.3 83,55.1 105.8,78 42.2,78 42.2,84.8 105.8,84.8 83,107.7 87.7,112.5 118.7,81.4 "/>
<path class="st0" d="M81.3,162.5c-44.7,0-81.1-36.4-81.1-81.1c0-44.7,36.4-81.1,81.1-81.1c44.7,0,81.1,36.4,81.1,81.1
	C162.5,126.1,126.1,162.5,81.3,162.5z M81.3,7C40.3,7,7,40.4,7,81.4c0,41,33.4,74.4,74.4,74.4c41,0,74.4-33.4,74.4-74.4
	C155.7,40.4,122.4,7,81.3,7z"/>
</svg>
