<?xml version="1.0" encoding="utf-8"?>
<!-- Generator: Adobe Illustrator 22.0.1, SVG Export Plug-In . SVG Version: 6.00 Build 0)  -->
<svg version="1.1" id="Layer_1" xmlns="http://www.w3.org/2000/svg" xmlns:xlink="http://www.w3.org/1999/xlink" x="0px" y="0px"
	 viewBox="0 0 20.1 20.1" style="enable-background:new 0 0 20.1 20.1;" xml:space="preserve">
<style type="text/css">
	.st0{fill:#009DCD;}
</style>
<g>
	<g>
		<path class="st0" d="M19,0H1.1H0v1.1V19v1.1h1.1H19h1.2V19V1.1V0H19z M13.4,10.9h-2.5v6.7H8.3v-6.7H6.6V8.5h1.8c0,0,0-1,0-2
			c0-1.6,1-3.1,3.5-3.1c1,0,1.7,0.1,1.7,0.1l-0.1,2.2c0,0-0.7,0-1.5,0c-0.9,0-1,0.4-1,1.1c0,0.1,0,0.1,0,0.1c0,0.2,0,0.6,0,1.6h2.6
			L13.4,10.9z"/>
	</g>
</g>
</svg>
