<?xml version="1.0" encoding="utf-8"?>
<!-- Generator: Adobe Illustrator 22.0.1, SVG Export Plug-In . SVG Version: 6.00 Build 0)  -->
<svg version="1.1" id="Layer_1" xmlns="http://www.w3.org/2000/svg" xmlns:xlink="http://www.w3.org/1999/xlink" x="0px" y="0px"
	 viewBox="0 0 20.1 20.1" style="enable-background:new 0 0 20.1 20.1;" xml:space="preserve">
<style type="text/css">
	.st0{fill:#4B4B4B;}
</style>
<path class="st0" d="M0,0v20.1h20.1V0H0z M16.9,17.8c-4.6,0-9.2,0-13.8,0c-0.5,0-0.9-0.3-0.9-0.9c0-2.7,0-5.5,0-8.2
	c0-0.1,0-0.1,0-0.2c0.6,0,1.2,0,1.7,0c-0.5,3,0.3,5.3,3,6.9c2.2,1.3,4.4,1.2,6.5-0.2c2.3-1.6,3.1-3.9,2.5-6.6c0.6,0,1.1,0,1.7,0
	c0,0.1,0,0.1,0,0.2c0,2.7,0,5.5,0,8.2C17.8,17.5,17.5,17.8,16.9,17.8z M17.8,3.1c0,0.4,0,0.8,0,1.1c0,0.4,0,0.8,0,1.1
	c0,0.5-0.3,0.8-0.8,0.8c-0.8,0-1.5,0-2.2,0c-0.5,0-0.8-0.3-0.8-0.8c0-0.8,0-1.5,0-2.2c0-0.5,0.3-0.8,0.8-0.8c0.8,0,1.5,0,2.3,0
	C17.5,2.3,17.8,2.6,17.8,3.1z M13.9,10.1c0,2.1-1.7,3.9-3.9,3.9c-2.1,0-3.9-1.7-3.9-3.9c0-2.1,1.7-3.9,3.9-3.9
	C12.2,6.2,13.9,7.9,13.9,10.1z"/>
</svg>
