<?xml version="1.0" encoding="utf-8"?>
<!-- Generator: Adobe Illustrator 22.0.1, SVG Export Plug-In . SVG Version: 6.00 Build 0)  -->
<svg version="1.1" id="Layer_1" xmlns="http://www.w3.org/2000/svg" xmlns:xlink="http://www.w3.org/1999/xlink" x="0px" y="0px"
	 viewBox="0 0 10.1 9.1" style="enable-background:new 0 0 10.1 9.1;" xml:space="preserve">
<style type="text/css">
	.st0{fill:#009DCD;}
</style>
<g>
	<path class="st0" d="M10.1,1.9l-2-1.2l-1.2,2l0.9,0.5l0.3-0.5l0.3,1C8.5,4,8.5,4.3,8.5,4.5C8.5,6.5,7,8,5.1,8v1
		c2.5,0,4.5-2,4.5-4.5c0-0.4-0.1-0.7-0.2-1.1L9.1,2.5l0.4,0.3L10.1,1.9z"/>
	<path class="st0" d="M2,6.3L1.7,5.4C1.6,5.1,1.6,4.8,1.6,4.5C1.6,2.6,3.1,1,5.1,1V0C2.6,0,0.6,2,0.6,4.5c0,0.4,0.1,0.7,0.2,1.2
		L1,6.6L0.5,6.3L0,7.2l2,1.2l1.2-2L2.3,5.9L2,6.3z"/>
</g>
</svg>
