<?xml version="1.0" encoding="utf-8"?>
<!-- Generator: Adobe Illustrator 22.0.1, SVG Export Plug-In . SVG Version: 6.00 Build 0)  -->
<svg version="1.1" id="Layer_1" xmlns="http://www.w3.org/2000/svg" xmlns:xlink="http://www.w3.org/1999/xlink" x="0px" y="0px"
	 viewBox="0 0 20.1 20.1" style="enable-background:new 0 0 20.1 20.1;" xml:space="preserve">
<style type="text/css">
	.st0{fill:#FF7F84;}
</style>
<path class="st0" d="M14.9,12.9c1-1.4,1.5-3,1.5-4.7C16.4,6,15.5,4,14,2.4C12.4,0.9,10.4,0,8.2,0S3.9,0.9,2.4,2.4S0,6,0,8.2
	s0.9,4.2,2.4,5.8c1.5,1.5,3.6,2.4,5.8,2.4c1.7,0,3.3-0.5,4.7-1.5l5.2,5.2l2-2L14.9,12.9z M12,12c-1,1-2.4,1.6-3.8,1.6
	c-1.4,0-2.8-0.6-3.8-1.6S2.8,9.6,2.8,8.2c0-1.4,0.6-2.8,1.6-3.8s2.4-1.6,3.8-1.6c1.4,0,2.8,0.6,3.8,1.6s1.6,2.4,1.6,3.8
	C13.6,9.6,13,11,12,12z"/>
</svg>
