<?xml version="1.0" encoding="utf-8"?>
<!-- Generator: Adobe Illustrator 22.0.1, SVG Export Plug-In . SVG Version: 6.00 Build 0)  -->
<svg version="1.1" id="Layer_1" xmlns="http://www.w3.org/2000/svg" xmlns:xlink="http://www.w3.org/1999/xlink" x="0px" y="0px"
	 viewBox="0 0 20.1 20.1" style="enable-background:new 0 0 20.1 20.1;" xml:space="preserve">
<style type="text/css">
	.st0{fill:none;}
	.st1{fill:#4B4B4B;}
</style>
<g>
	<path class="st0" d="M13.6,8.2c0-1.4-0.6-2.8-1.6-3.8c-1-1-2.4-1.6-3.8-1.6c-1.4,0-2.8,0.6-3.8,1.6c-1,1-1.6,2.4-1.6,3.8
		c0,1.4,0.6,2.8,1.6,3.8c1,1,2.4,1.6,3.8,1.6C9.6,13.6,11,13,12,12C13,11,13.6,9.6,13.6,8.2z"/>
	<path class="st1" d="M20.1,18.1l-5.2-5.2c1-1.4,1.5-3,1.5-4.7c0-2.2-0.9-4.2-2.4-5.8C12.4,0.9,10.4,0,8.2,0C6,0,3.9,0.9,2.4,2.4
		C0.9,3.9,0,6,0,8.2c0,2.2,0.9,4.2,2.4,5.8c1.5,1.5,3.6,2.4,5.8,2.4c1.7,0,3.3-0.5,4.7-1.5l5.2,5.2L20.1,18.1z M4.4,12
		c-1-1-1.6-2.4-1.6-3.8c0-1.4,0.6-2.8,1.6-3.8c1-1,2.4-1.6,3.8-1.6c1.4,0,2.8,0.6,3.8,1.6c1,1,1.6,2.4,1.6,3.8C13.6,9.6,13,11,12,12
		c-1,1-2.4,1.6-3.8,1.6C6.8,13.6,5.4,13,4.4,12z"/>
</g>
</svg>
