<?xml version="1.0" encoding="utf-8"?>
<!-- Generator: Adobe Illustrator 22.0.1, SVG Export Plug-In . SVG Version: 6.00 Build 0)  -->
<svg version="1.1" id="Layer_1" xmlns="http://www.w3.org/2000/svg" xmlns:xlink="http://www.w3.org/1999/xlink" x="0px" y="0px"
	 viewBox="0 0 20.1 20.1" style="enable-background:new 0 0 20.1 20.1;" xml:space="preserve">
<style type="text/css">
	.st0{fill:#4B4B4B;}
</style>
<path class="st0" d="M0.9,14c-0.5-0.5-0.8-1.1-0.8-1.9c0-0.8,0.3-1.4,0.8-1.9V14z M2.6,14.6c-0.3,0-0.5,0-0.8-0.1V9.8
	c0.4-0.1,0.6-0.1,0.8-0.1V14.6z M4.2,14.6H3.4V9.9l0.3,0.2C3.8,9.6,4,9.2,4.2,8.8V14.6L4.2,14.6z M5.9,14.6H5.1V7.9
	c0.3-0.2,0.5-0.4,0.8-0.5V14.6z M7.6,14.6H6.7V7.3c0.3,0,0.4-0.1,0.8,0C7.6,7.3,7.6,14.6,7.6,14.6z M9.2,14.6H8.4V7.5l0.3,0.2
	C8.8,7.4,9,7.2,9.2,6.9V14.6z M17.6,14.6H10V6.2c0.7-0.5,1.4-0.7,2.3-0.7c2.3,0,4.1,1.9,4.3,4.2C18.2,8.9,20,10.2,20,12
	C20,13.5,19,14.6,17.6,14.6z"/>
</svg>
