<?xml version="1.0" encoding="utf-8"?>
<!-- Generator: Adobe Illustrator 22.0.1, SVG Export Plug-In . SVG Version: 6.00 Build 0)  -->
<svg version="1.1" id="Layer_1" xmlns="http://www.w3.org/2000/svg" xmlns:xlink="http://www.w3.org/1999/xlink" x="0px" y="0px"
	 viewBox="0 0 20.1 20.1" style="enable-background:new 0 0 20.1 20.1;" xml:space="preserve">
<style type="text/css">
	.st0{fill:#FF2932;}
</style>
<g>
	<g>
		<g>
			<path class="st0" d="M19,0H1.1H0v1.1V19v1.2h1.1H19h1.2V19V1.1V0H19z M11.8,17c-3,0.1-4.2-2.2-4.2-3.7V8.7H6.2V6.9
				C8.3,6.2,8.9,4.3,9,3.2C9,3.1,9,3.1,9.1,3.1h2v3.6h2.8v2.1h-2.8v4.4c0,0.6,0.2,1.4,1.3,1.4c0.4,0,0.9-0.1,1.1-0.2l0.7,2
				C14,16.6,12.9,17,11.8,17z"/>
		</g>
	</g>
</g>
</svg>
