<?xml version="1.0" encoding="utf-8"?>
<!-- Generator: Adobe Illustrator 22.0.1, SVG Export Plug-In . SVG Version: 6.00 Build 0)  -->
<svg version="1.1" id="Layer_1" xmlns="http://www.w3.org/2000/svg" xmlns:xlink="http://www.w3.org/1999/xlink" x="0px" y="0px"
	 viewBox="0 0 20.1 20.1" style="enable-background:new 0 0 20.1 20.1;" xml:space="preserve">
<style type="text/css">
	.st0{fill:#4B4B4B;}
</style>
<g id="Logo__x2014__FIXED">
	<g>
		<path class="st0" d="M6.3,18.2c7.5,0,11.7-6.3,11.7-11.7c0-0.2,0-0.4,0-0.5c0.8-0.6,1.5-1.3,2-2.1c-0.7,0.3-1.5,0.5-2.4,0.6
			c0.8-0.5,1.5-1.3,1.8-2.3c-0.8,0.5-1.7,0.8-2.6,1c-0.8-0.8-1.8-1.3-3-1.3c-2.3,0-4.1,1.8-4.1,4.1c0,0.3,0,0.6,0.1,0.9
			C6.5,6.8,3.5,5.2,1.4,2.7C1.1,3.3,0.9,4,0.9,4.7c0,1.4,0.7,2.7,1.8,3.4C2,8.1,1.4,7.9,0.9,7.6c0,0,0,0,0,0.1c0,2,1.4,3.6,3.3,4
			c-0.3,0.1-0.7,0.1-1.1,0.1c-0.3,0-0.5,0-0.8-0.1c0.5,1.6,2,2.8,3.8,2.8c-1.4,1.1-3.2,1.8-5.1,1.8c-0.3,0-0.7,0-1-0.1
			C1.9,17.5,4,18.2,6.3,18.2"/>
	</g>
</g>
</svg>
