<?xml version="1.0" encoding="utf-8"?>
<!-- Generator: Adobe Illustrator 22.0.1, SVG Export Plug-In . SVG Version: 6.00 Build 0)  -->
<svg version="1.1" id="Layer_1" xmlns="http://www.w3.org/2000/svg" xmlns:xlink="http://www.w3.org/1999/xlink" x="0px" y="0px"
	 viewBox="0 0 20.1 20.1" style="enable-background:new 0 0 20.1 20.1;" xml:space="preserve">
<style type="text/css">
	.st0{fill:#009DCD;}
</style>
<path class="st0" d="M0,0v20.1h20.1V0H0z M17.7,5.9L17.7,5.9C17.6,6,17.6,6,17.6,6.1c0,0,0,0,0,0.1l-0.1,0.1
	c-0.1,0.1-0.2,0.2-0.3,0.3c0,0,0,0.1-0.1,0.1L17,6.8c0,0,0,0-0.1,0.1l0,0c0,0-0.1,0-0.1,0.1l-0.1,0.1c-0.1,0-0.1,0.1-0.2,0.1
	s-0.1,0.1-0.1,0.1s0,0-0.1,0c0,0.1,0,0.1,0,0.2s0,0.1,0,0.2s0,0.1,0,0.2V8c0,0,0,0,0,0.1c0,0,0,0,0,0.1v0.1l0,0l0,0l0,0v0.1l0,0v0.1
	c0,0,0,0,0,0.1l0,0c0,0,0,0,0,0.1c0,0,0,0,0,0.1v0.1V9l0,0c0,0,0,0,0,0.1v0.1l0,0C16,9,16,9,16,9s0,0,0,0.1c0,0,0,0,0,0.1
	c0,0,0,0,0,0.1v0.1v0.1v0.1c0,0.1,0,0.1,0,0.2c0,0.1,0,0.1,0,0.1c0,0.1,0,0.1-0.1,0.2c0,0.1,0,0.1-0.1,0.2c0,0,0,0.1-0.1,0.1
	c0,0,0,0.1-0.1,0.1c0,0,0,0.1-0.1,0.1c0,0,0,0.1-0.1,0.1c0,0,0,0.1-0.1,0.1c0,0.1-0.1,0.2-0.1,0.2s0,0.1-0.1,0.1
	c0,0.1-0.1,0.1-0.1,0.2c0,0,0,0,0,0.1l-0.1,0.1c0,0,0,0.1-0.1,0.1l-0.1,0.1l-0.1,0.1l-0.1,0.1L14.4,12l-0.1,0.1l-0.1,0.1l-0.1,0.1
	c0,0,0,0.1-0.1,0.1l-0.1,0.1c0,0,0,0-0.1,0.1l-0.1,0.1c-0.1,0.1-0.1,0.1-0.2,0.2c-0.1,0.1-0.1,0.1-0.2,0.2l0,0l0,0l0,0
	c0,0,0,0-0.1,0l-0.1,0.1c0,0,0,0-0.1,0.1l0,0c0,0-0.1,0-0.1,0.1c0,0-0.1,0-0.1,0.1c0,0-0.1,0-0.1,0.1c0,0-0.1,0-0.1,0.1
	c0,0-0.1,0-0.1,0.1c-0.1,0-0.1,0.1-0.2,0.1c-0.1,0-0.1,0.1-0.2,0.1c0,0-0.1,0-0.1,0.1c0,0-0.1,0-0.1,0.1c0,0-0.1,0-0.1,0.1h-0.1
	l-0.1,0.1h-0.1c-0.1,0-0.1,0.1-0.2,0.1h-0.1c-0.1,0-0.1,0.1-0.2,0.1c-0.1,0-0.1,0-0.2,0.1h-0.1c-0.1,0-0.1,0-0.2,0.1
	c0,0-0.1,0-0.1,0.1h-0.1h-0.1c0,0-0.1,0-0.1,0.1H10H9.9H9.8H9.7l0,0H9.6H9.5H9.4H9.3c0,0,0,0-0.1,0c0,0,0,0-0.1,0H9l0,0l0,0l0,0
	c0,0,0,0-0.1,0H8.8c0,0,0,0-0.1,0l0,0l0,0l0,0l0,0l0,0H8.6c0,0,0,0-0.1,0l0,0l0,0H8.4l0,0l0,0l0,0c0,0,0,0-0.1,0l0,0l0,0
	c0,0,0,0-0.1,0c0,0,0,0-0.1,0c0,0,0,0-0.1,0H7.9H7.8H7.7c-0.1,0-0.1,0-0.2,0l0,0c-0.1,0-0.2,0-0.3,0l0,0c-0.1,0-0.2,0-0.3,0H6.8H6.7
	H6.6H6.5H6.4c0,0,0,0-0.1,0c0,0,0,0-0.1,0c0,0,0,0-0.1,0c0,0,0,0-0.1,0c0,0,0,0-0.1,0l0,0l0,0l0,0c0,0,0,0-0.1,0l0,0l0,0l0,0
	c0,0,0,0-0.1,0l0,0c0,0,0,0-0.1,0c0,0,0,0-0.1,0H5.4H5.3l0,0H5.2H5.1H5H4.9H4.8H4.7H4.6H4.5c0,0,0,0-0.1,0c0,0,0,0-0.1,0
	s-0.1,0-0.2-0.1H4c-0.1,0-0.1,0-0.2-0.1c0,0-0.1,0-0.1-0.1c-0.1,0-0.1,0-0.2-0.1c-0.1,0-0.1,0-0.2-0.1c-0.1,0-0.1,0-0.1-0.1
	c-0.1,0-0.1,0-0.2-0.1c-0.1,0-0.1-0.1-0.2-0.1c-0.1,0-0.2-0.1-0.3-0.1c0,0-0.1,0-0.1-0.1H2.3h0.1h0.1h0.1h0.1h0.1C2.9,14,3,14,3,14
	c0.1,0,0.2,0,0.2,0h0.1c0,0,0,0,0.1,0c0,0,0,0,0.1,0c0,0,0,0,0.1,0h0.1h0.1c0,0,0,0,0.1,0l0,0l0,0l0,0H4c0,0,0,0,0.1,0l0,0l0,0
	c0,0,0,0,0.1,0c0,0,0,0,0.1,0c0,0,0,0,0.1,0l0,0l0,0c0,0,0,0,0.1,0c0,0,0,0,0.1,0h0.1l0,0l0,0l0,0l0,0h0.1h0.1C5,14,5,14,5,14h0.1
	c0.1,0,0.2-0.1,0.3-0.1c0,0,0.1,0,0.1-0.1c0.1,0,0.1,0,0.2-0.1c0,0,0.1,0,0.1-0.1c0,0,0.1,0,0.1-0.1c0,0,0.1,0,0.1-0.1
	c0.1,0,0.1-0.1,0.2-0.1c0,0,0.1,0,0.1-0.1l0.1-0.1c0.1,0,0.1-0.1,0.2-0.1l0,0l0,0l0,0l0,0l0,0H6.5l0,0l0,0l0,0c0,0,0,0-0.1,0l0,0
	c0,0,0,0-0.1,0c0,0,0,0-0.1,0c0,0,0,0-0.1,0c0,0,0,0-0.1,0l0,0l0,0H5.9c0,0,0,0-0.1,0c0,0,0,0-0.1,0s-0.2-0.1-0.3-0.1H5.3H5.2
	c-0.1,0-0.1-0.1-0.2-0.1s-0.1-0.1-0.2-0.1c0,0-0.1,0-0.1-0.1c0,0,0,0-0.1-0.1c0,0,0,0-0.1-0.1l-0.1-0.1c-0.1,0-0.1-0.1-0.2-0.2
	c0,0,0,0-0.1-0.1C5,12.1,5,12,5,12l-0.1-0.1c0,0,0-0.1-0.1-0.1c0-0.1-0.1-0.1-0.1-0.2c0,0,0-0.1-0.1-0.1c0-0.1,0-0.1-0.1-0.2
	c0,0,0,0,0-0.1l0,0h0.1h0.1h0.1c0,0,0,0,0.1,0c0,0,0,0,0.1,0h0.1c0.1,0,0.1,0,0.2,0c0,0,0,0,0.1,0h0.1h0.1l0,0l0,0l0,0l0,0h0.1h0.1
	c0,0,0,0-0.1,0H5.6H5.5H5.4H5.3H5.2H5.1c0,0-0.1,0-0.1-0.1c-0.1,0-0.1-0.1-0.2-0.1c0,0-0.1,0-0.1-0.1c-0.1,0-0.1-0.1-0.2-0.1
	l-0.1-0.1l-0.1-0.1c-0.1-0.1-0.1-0.1-0.2-0.2l0,0c0,0,0-0.1-0.1-0.1C4,10,4,10,4,10s0-0.1-0.1-0.1L3.8,9.8c0-0.2-0.1-0.3-0.1-0.4
	V9.3V9.2V9.1c0,0,0,0,0-0.1V8.9c0,0,0,0,0-0.1l0,0c0,0,0,0,0-0.1V8.6c0,0,0,0,0-0.1c0,0,0,0,0-0.1c0,0,0,0,0-0.1V8.2l0,0h0.1
	c0.1,0,0.1,0.1,0.2,0.1h0.1h0.1h0.1h0.1h0.1l0,0c0,0,0,0,0.1,0c0,0,0,0,0.1,0l0,0l0,0l0,0l0,0l0,0h0.1l0,0c0,0,0,0,0.1,0l0,0
	c0,0,0,0-0.1-0.1c-0.1,0-0.1-0.1-0.1-0.1l0,0c0,0-0.1,0-0.1-0.1l0,0c0,0-0.1,0-0.1-0.1C4.3,8.3,4.2,8.2,4.1,8.1c0,0,0,0-0.1-0.1
	c0.1,0,0,0,0-0.1l0,0l0,0c0,0,0-0.1-0.1-0.1c0,0,0-0.1-0.1-0.1L3.7,7.6c0,0,0-0.1-0.1-0.1c0,0,0-0.1-0.1-0.1l0,0V7.3V7.2V7.1
	c0,0,0,0,0-0.1c0,0,0,0,0-0.1l0,0c0,0,0,0,0-0.1V6.7l0,0l0,0c0-0.1,0-0.1,0-0.2c0,0,0,0,0-0.1c0,0,0-0.1,0-0.2c0,0,0,0,0-0.1V6
	c0,0,0,0,0-0.1c0,0,0,0,0-0.1V5.7V5.6V5.5V5.4c0-0.1,0-0.1,0.1-0.2c0-0.1,0-0.1,0.1-0.2c0,0,0-0.1,0.1-0.1L3.9,5
	C4,5.2,4.1,5.3,4.2,5.3c0.1,0.1,0.1,0.1,0.2,0.2l0.1,0.1l0.1,0.1l0.1,0.1l0.1,0.1l0,0c0,0,0.1,0,0.1,0.1C5,6,5,6,5,6.1l0.1,0.1
	l0.1,0.1l0.1,0.1c0.1,0,0.1,0.1,0.2,0.1l0.1,0.1c0,0,0.1,0,0.1,0.1c0,0,0.1,0,0.1,0.1c0,0,0.1,0,0.1,0.1c0,0,0.1,0,0.1,0.1
	c0.1,0,0.1,0.1,0.2,0.1C6.4,6.9,6.5,7,6.5,7s0.1,0,0.1,0.1c0,0,0.1,0,0.1,0.1h0.1h0.1c0,0,0,0,0.1,0c0,0,0,0,0.1,0c0,0,0,0,0.1,0
	c0,0,0,0,0.1,0c0,0,0,0,0.1,0s0.1,0,0.2,0.1c0.1,0,0.2,0.1,0.2,0.1c0.1,0,0.2,0,0.2,0.1l0,0c0,0,0,0,0.1,0c0,0,0,0,0.1,0h0.1h0.1
	h0.1h0.1h0.1h0.1h0.1l0,0l0,0l0,0l0,0l0,0c0,0,0,0,0.1,0c0,0,0,0,0.1,0h0.1l0,0l0,0h0.1c0,0,0,0,0.1,0l0,0l0,0c0,0,0,0,0.1,0
	c0,0,0,0,0.1,0h0.1l0,0l0,0l0,0h0.1l0,0l0,0c0,0,0,0,0.1,0c0,0,0,0,0.1,0V7.4l0,0V7.3l0,0l0,0l0,0c0,0,0,0,0-0.1c0,0,0,0,0-0.1V7
	c0-0.1,0-0.1,0-0.2s0-0.1,0-0.2l0,0V6.5c0,0,0,0,0-0.1c0,0,0,0,0-0.1c0,0,0,0,0-0.1c0,0,0,0,0-0.1c0,0,0,0,0-0.1V5.9V5.8
	c0,0,0-0.1,0.1-0.1V5.6c0,0,0-0.1,0.1-0.1c0,0,0-0.1,0.1-0.1c0,0,0-0.1,0.1-0.1l0,0c0,0,0,0,0-0.1c0,0,0-0.1,0.1-0.1
	c0,0,0,0,0.1-0.1l0.1-0.1c0-0.1,0.1-0.1,0.1-0.1l0.1-0.1l0,0c0,0,0.1,0,0.1-0.1c0,0,0,0,0.1-0.1l0.1-0.1c0.1,0,0.1-0.1,0.2-0.1
	l0.1-0.1c0.1,0,0.1-0.1,0.2-0.1h0.1h0.1H12h0.1h0.1h0.1l0,0l0,0l0,0l0,0c0,0,0,0,0.1,0l0,0l0,0l0,0c0.1,0,0.1,0,0.2,0c0,0,0,0,0.1,0
	l0,0h0.1l0,0h0.1H13l0,0c0,0,0,0,0.1,0c0,0,0,0,0.1,0l0,0l0,0l0,0l0,0l0,0l0,0l0,0h0.1c0,0,0,0,0.1,0c0,0,0,0,0.1,0h0.1
	c0,0,0,0,0.1,0h0.1h0.1c0.1,0,0.1,0,0.2,0.1c0.1,0,0.2,0.1,0.2,0.1C14.9,5,15,5,15,5.1c0,0,0.1,0,0.1,0.1c0,0,0.1,0,0.1,0.1
	c0,0,0.1,0,0.1,0.1l0.1,0.1l0,0h0.1h0.1l0,0h0.1h0.1h0.1c0,0,0,0,0.1,0c0,0,0,0,0.1,0s0.1,0,0.2,0s0.1,0,0.2-0.1h0.1
	c0,0,0.1,0,0.1-0.1c0,0,0,0,0.1,0c0,0,0,0,0.1,0s0.1,0,0.2-0.1h0.1c0.1,0,0.2-0.1,0.2-0.1l0,0c0,0,0,0,0,0.1s-0.1,0.1-0.1,0.2
	l-0.1,0.1c0,0,0,0.1-0.1,0.1C17,5.3,17,5.4,17,5.4l-0.1,0.1l-0.1,0.1c0,0,0,0-0.1,0.1l-0.1,0.1l0,0l-0.1,0.1L16.4,6
	c0,0-0.1,0.1-0.2,0.1c0,0,0,0-0.1,0l0,0c0,0,0,0,0.1,0s0,0,0,0l0,0c0,0,0,0,0.1,0l0,0l0,0l0,0l0,0l0,0l0,0l0,0l0,0l0,0l0,0l0,0l0,0
	l0,0l0,0l0,0l0,0l0,0l0,0l0,0l0,0l0,0l0,0l0,0l0,0l0,0l0,0l0,0l0,0l0,0l0,0C17.6,5.9,17.7,5.9,17.7,5.9L17.7,5.9
	C17.7,5.8,17.7,5.8,17.7,5.9C17.8,5.9,17.7,5.9,17.7,5.9z"/>
</svg>
