<?xml version="1.0" encoding="utf-8"?>
<!-- Generator: Adobe Illustrator 22.0.1, SVG Export Plug-In . SVG Version: 6.00 Build 0)  -->
<svg version="1.1" id="Layer_1" xmlns="http://www.w3.org/2000/svg" xmlns:xlink="http://www.w3.org/1999/xlink" x="0px" y="0px"
	 viewBox="0 0 20.1 20.1" style="enable-background:new 0 0 20.1 20.1;" xml:space="preserve">
<style type="text/css">
	.st0{fill:#4B4B4B;}
</style>
<g id="Layer_x0020_1">
	<path class="st0" d="M16.9,1.4C16.9,1.4,17,1.4,16.9,1.4L16.9,1.4c1.1,0,1.9,0.4,2.4,1C19.8,3,20,3.9,20,5l0,0v0.1l0,0
		c0,0.1,0,0.1,0,0.2s0,0.1,0,0.2l0,0c0,1-0.4,2.1-1.1,3.5c-0.7,1.3-1.6,2.8-2.9,4.5l0,0c-1.3,1.7-2.6,3-3.7,3.9
		c-1.2,0.9-2.2,1.3-3.2,1.3c-0.6,0-1.2-0.3-1.7-0.9c-0.5-0.5-0.9-1.4-1.3-2.4l0,0c-0.2-0.6-0.3-1.3-0.5-1.9C5.2,12.2,4.8,11,4.5,9.6
		l0,0c-0.3-1-0.6-1.8-0.9-2.3S3,6.6,2.8,6.6c0,0-0.2,0.1-0.4,0.2C2.1,7,1.8,7.2,1.4,7.5L1.2,7.6L1.1,7.4L0.2,6.3L0.1,6.1L0.2,6
		c0.5-0.5,1-0.9,1.4-1.3C2.1,4.3,2.5,3.9,3,3.4l0,0c0.6-0.6,1.2-1,1.7-1.3c0.6-0.3,1-0.5,1.3-0.5l0,0c0.8-0.1,1.5,0.2,2,0.7
		c0.5,0.6,0.8,1.4,1,2.6l0,0C9.3,6.1,9.4,7,9.5,7.8c0.1,0.7,0.2,1.3,0.3,1.6l0,0c0.2,1,0.4,1.7,0.7,2.2c0.2,0.4,0.4,0.6,0.6,0.6
		c0.1,0,0.3-0.1,0.6-0.4c0.3-0.3,0.6-0.8,1-1.4l0,0c0.4-0.6,0.7-1.2,0.9-1.7C13.9,8.2,14,7.8,14,7.5l0,0c0.1-0.5,0-0.9-0.2-1.1
		c-0.2-0.2-0.5-0.3-0.9-0.3c-0.2,0-0.4,0-0.7,0.1c-0.2,0-0.5,0.1-0.7,0.2l-0.4,0.2l0.1-0.4c0.5-1.6,1.2-2.7,2.1-3.5s2-1.2,3.4-1.2
		l0,0L16.9,1.4L16.9,1.4C16.8,1.4,16.9,1.4,16.9,1.4L16.9,1.4z"/>
</g>
</svg>
