<?xml version="1.0" standalone="no"?>
<!DOCTYPE svg PUBLIC "-//W3C//DTD SVG 20010904//EN"
 "http://www.w3.org/TR/2001/REC-SVG-20010904/DTD/svg10.dtd">
<svg version="1.0" xmlns="http://www.w3.org/2000/svg"
 width="2083.000000pt" height="2083.000000pt" viewBox="0 0 2083.000000 2083.000000"
 preserveAspectRatio="xMidYMid meet">
<metadata>
Created by potrace 1.11, written by Peter Selinger 2001-2013
</metadata>
<g transform="translate(0.000000,2083.000000) scale(0.100000,-0.100000)"
fill="#000000" stroke="none">
<path d="M18887 20634 c-1 -2 -45 -6 -97 -10 -112 -8 -132 -10 -225 -18 -38
-4 -95 -9 -125 -12 -72 -6 -147 -13 -212 -19 -76 -7 -153 -14 -233 -20 -38 -3
-95 -8 -125 -10 -30 -3 -79 -8 -107 -10 -29 -3 -79 -7 -110 -10 -32 -3 -80 -7
-108 -10 -27 -2 -86 -7 -130 -10 -44 -3 -96 -8 -115 -10 -19 -2 -71 -7 -115
-10 -44 -4 -91 -8 -105 -10 -14 -2 -65 -7 -115 -10 -49 -4 -101 -8 -115 -10
-14 -2 -63 -6 -110 -10 -145 -11 -176 -14 -221 -19 -24 -3 -78 -8 -119 -11
-41 -3 -95 -8 -120 -10 -25 -2 -76 -6 -115 -10 -66 -5 -117 -10 -225 -20 -25
-3 -79 -7 -120 -11 -41 -3 -91 -7 -110 -9 -37 -4 -107 -10 -340 -30 -41 -3
-95 -8 -120 -9 -64 -6 -178 -16 -225 -21 -22 -3 -74 -7 -115 -10 -75 -6 -153
-13 -220 -19 -19 -2 -75 -7 -125 -11 -49 -3 -101 -8 -115 -10 -14 -2 -61 -6
-105 -10 -44 -3 -102 -8 -130 -10 -58 -6 -132 -12 -230 -20 -38 -3 -88 -8
-110 -10 -22 -2 -71 -7 -110 -10 -38 -3 -88 -7 -110 -10 -22 -2 -76 -7 -120
-10 -44 -3 -96 -8 -115 -10 -19 -3 -71 -7 -115 -10 -44 -4 -98 -8 -120 -10
-91 -8 -174 -16 -230 -21 -33 -2 -80 -7 -105 -9 -25 -2 -72 -7 -105 -9 -33 -3
-87 -8 -120 -11 -33 -3 -85 -7 -115 -10 -30 -2 -80 -7 -110 -10 -30 -3 -80 -7
-110 -9 -62 -5 -200 -17 -245 -22 -16 -1 -68 -5 -115 -9 -47 -3 -96 -8 -110
-10 -14 -2 -63 -7 -110 -10 -47 -3 -105 -8 -130 -10 -25 -3 -72 -7 -105 -10
-33 -3 -82 -7 -110 -10 -27 -3 -77 -7 -110 -10 -33 -3 -82 -7 -110 -10 -27 -2
-86 -7 -130 -10 -44 -3 -91 -8 -105 -10 -14 -2 -65 -7 -115 -10 -49 -4 -101
-8 -115 -10 -14 -2 -65 -7 -115 -10 -49 -4 -103 -8 -120 -10 -16 -1 -66 -6
-110 -9 -44 -4 -94 -9 -111 -11 -17 -2 -71 -7 -120 -10 -49 -4 -105 -8 -124
-10 -44 -4 -149 -14 -220 -20 -125 -11 -177 -16 -220 -20 -25 -2 -79 -7 -120
-11 -41 -3 -91 -7 -110 -9 -19 -2 -71 -6 -115 -10 -124 -10 -156 -13 -220 -19
-33 -3 -91 -8 -130 -11 -38 -3 -86 -8 -105 -10 -19 -1 -71 -6 -115 -10 -44 -3
-98 -8 -120 -10 -22 -3 -73 -7 -113 -10 -39 -3 -87 -7 -105 -10 -17 -2 -72 -7
-122 -10 -49 -4 -103 -8 -120 -10 -16 -2 -66 -7 -110 -10 -44 -3 -98 -8 -120
-10 -22 -3 -71 -7 -110 -10 -38 -3 -88 -8 -110 -11 -22 -2 -69 -6 -105 -8 -65
-5 -164 -13 -250 -21 -25 -2 -70 -7 -100 -9 -30 -3 -80 -8 -110 -11 -30 -3
-84 -7 -120 -10 -36 -3 -85 -7 -110 -10 -25 -3 -79 -7 -120 -10 -41 -3 -97 -8
-125 -10 -27 -3 -70 -7 -95 -10 -25 -2 -79 -7 -120 -10 -41 -3 -95 -8 -120
-10 -25 -2 -79 -7 -120 -11 -41 -3 -91 -7 -110 -9 -19 -2 -69 -6 -110 -10 -41
-3 -95 -8 -120 -10 -25 -2 -79 -7 -120 -10 -41 -3 -88 -8 -105 -10 -16 -2 -64
-7 -105 -10 -41 -4 -91 -8 -110 -10 -19 -1 -73 -6 -120 -10 -47 -3 -98 -8
-115 -10 -16 -2 -68 -7 -115 -10 -47 -3 -103 -8 -125 -10 -22 -3 -71 -7 -110
-10 -38 -3 -92 -7 -120 -10 -63 -6 -142 -13 -225 -20 -36 -3 -85 -7 -110 -10
-25 -2 -79 -7 -120 -10 -41 -4 -88 -8 -105 -10 -16 -2 -70 -6 -120 -10 -49 -3
-106 -8 -125 -10 -19 -3 -66 -7 -105 -10 -38 -3 -90 -8 -115 -10 -174 -15
-231 -21 -345 -30 -27 -3 -75 -7 -105 -10 -57 -5 -151 -13 -230 -20 -25 -2
-74 -6 -110 -10 -36 -3 -90 -7 -120 -10 -30 -2 -86 -7 -125 -11 -74 -6 -92 -8
-220 -19 -44 -3 -96 -8 -115 -10 -19 -2 -71 -7 -115 -10 -127 -10 -177 -14
-230 -20 -73 -7 -150 -14 -230 -20 -38 -3 -86 -8 -105 -10 -19 -2 -71 -7 -115
-10 -44 -3 -96 -8 -115 -10 -19 -2 -71 -7 -115 -10 -122 -10 -175 -14 -230
-20 -96 -9 -343 -31 -455 -40 -30 -2 -86 -7 -125 -11 -102 -10 -126 -12 -162
-13 l-33 -1 5 -74 c2 -41 6 -94 9 -117 3 -24 8 -73 10 -109 12 -146 17 -206
21 -235 2 -16 7 -70 10 -120 4 -49 8 -101 10 -114 3 -14 7 -63 10 -110 4 -47
9 -108 11 -136 3 -27 7 -75 9 -105 5 -55 11 -127 20 -210 2 -25 7 -81 10 -125
4 -44 8 -93 10 -110 2 -16 7 -68 10 -115 3 -47 7 -96 9 -110 3 -14 7 -65 11
-115 3 -49 8 -108 10 -130 6 -61 14 -143 19 -210 3 -33 8 -91 12 -130 7 -73 8
-86 18 -225 4 -47 9 -96 11 -110 2 -14 6 -65 10 -114 4 -50 8 -97 10 -105 1
-9 6 -63 10 -121 4 -58 9 -113 11 -124 2 -10 6 -55 9 -100 6 -83 10 -139 19
-236 7 -72 15 -159 21 -240 3 -36 7 -83 10 -105 2 -22 7 -69 9 -105 3 -36 8
-96 12 -135 3 -38 7 -86 9 -105 2 -19 6 -66 9 -105 19 -206 24 -267 31 -350 3
-38 8 -90 10 -115 3 -25 7 -79 10 -119 3 -41 7 -86 9 -100 3 -15 7 -69 11
-121 3 -52 8 -108 10 -125 2 -16 7 -66 10 -110 4 -44 8 -96 10 -115 2 -19 7
-66 10 -105 3 -38 8 -97 11 -130 2 -33 7 -85 9 -115 2 -30 7 -75 9 -100 3 -25
8 -81 12 -125 3 -44 8 -93 9 -110 2 -16 6 -68 10 -115 3 -47 8 -96 10 -110 2
-14 7 -65 10 -114 4 -49 8 -96 10 -105 1 -9 6 -61 10 -116 3 -55 8 -111 10
-125 2 -14 7 -59 10 -100 3 -41 8 -95 10 -120 2 -25 6 -81 10 -125 3 -44 8
-96 10 -115 2 -19 7 -71 11 -115 3 -44 8 -93 9 -110 2 -16 6 -67 10 -113 4
-46 8 -93 10 -105 2 -12 7 -62 10 -112 4 -49 8 -106 10 -125 1 -19 6 -73 10
-120 3 -47 8 -96 10 -110 4 -24 8 -71 21 -240 3 -41 7 -86 9 -100 2 -14 7 -65
10 -115 4 -49 8 -101 10 -115 2 -14 7 -70 11 -125 3 -55 8 -107 9 -116 2 -8 6
-55 10 -105 4 -49 8 -100 10 -114 3 -14 7 -63 10 -110 7 -93 12 -157 20 -238
6 -59 12 -125 20 -227 3 -38 8 -86 10 -105 2 -19 7 -75 10 -125 4 -49 8 -101
10 -115 2 -14 7 -59 10 -100 3 -41 8 -95 10 -120 2 -25 7 -79 10 -120 3 -41 8
-93 10 -115 2 -22 7 -71 10 -110 3 -38 8 -90 10 -115 7 -71 14 -159 20 -235 3
-38 8 -81 10 -95 2 -14 7 -70 10 -124 4 -55 8 -107 10 -115 1 -9 6 -60 10
-115 4 -54 8 -108 10 -120 2 -11 6 -59 10 -106 3 -47 8 -103 10 -125 2 -22 7
-71 10 -110 3 -38 8 -90 10 -115 2 -25 7 -76 10 -115 3 -38 7 -88 10 -110 5
-52 16 -177 20 -235 5 -71 16 -192 20 -225 2 -16 7 -64 10 -105 3 -41 8 -97
10 -125 2 -27 9 -104 15 -170 6 -66 12 -142 15 -170 7 -74 14 -152 20 -223 3
-34 7 -88 10 -120 3 -31 7 -86 10 -122 3 -36 7 -81 10 -100 2 -19 7 -73 10
-120 3 -47 8 -101 10 -120 3 -19 7 -66 10 -105 3 -38 7 -88 10 -110 2 -22 7
-76 10 -120 4 -44 8 -98 10 -120 3 -22 7 -74 10 -115 3 -41 7 -91 10 -110 2
-19 7 -71 10 -115 3 -44 8 -96 10 -115 2 -19 6 -69 10 -110 3 -41 8 -95 10
-120 2 -25 7 -76 10 -115 3 -38 7 -86 10 -105 2 -19 7 -71 10 -115 3 -44 8
-96 10 -115 2 -19 7 -71 10 -115 3 -44 8 -98 10 -120 3 -22 7 -71 10 -110 4
-38 8 -95 11 -125 2 -30 6 -81 9 -114 2 -32 7 -81 10 -110 2 -28 7 -78 10
-111 6 -71 13 -145 20 -217 3 -29 7 -87 10 -128 8 -103 14 -167 19 -220 3 -25
8 -75 11 -113 3 -37 7 -97 10 -135 3 -37 8 -89 11 -117 9 -95 13 -140 18 -205
3 -36 8 -96 12 -135 6 -72 7 -85 19 -220 3 -44 8 -96 10 -115 7 -51 16 -156
20 -225 2 -33 6 -87 9 -120 14 -135 16 -163 22 -235 4 -41 7 -81 7 -88 0 -12
53 -11 162 3 17 2 68 7 115 10 47 3 103 8 125 10 145 12 184 16 220 20 22 3
71 7 108 10 37 3 87 7 110 9 23 3 80 7 127 11 47 4 101 8 120 10 19 2 69 6
110 10 41 3 91 7 110 9 19 3 71 8 115 11 96 7 174 14 235 20 25 2 73 7 107 10
35 3 89 7 120 10 32 3 83 7 113 10 30 2 87 7 125 11 39 3 86 8 105 9 96 9 171
16 229 20 91 7 167 14 226 20 28 3 79 7 115 10 36 3 92 8 125 11 74 6 129 11
225 19 41 3 91 8 110 10 19 2 67 7 105 10 150 12 202 16 240 20 22 2 72 7 110
10 39 3 88 8 110 10 22 2 76 6 120 10 44 3 94 8 110 10 17 2 68 7 115 10 47 4
101 8 120 10 48 5 153 14 220 19 30 3 82 7 115 10 85 8 182 17 235 21 25 2 77
7 115 11 93 8 124 11 226 18 47 4 95 8 105 10 10 2 64 7 119 11 55 3 114 8
130 10 17 2 64 7 105 10 41 4 91 8 110 10 19 1 71 6 115 10 44 3 98 8 120 10
22 2 74 7 115 10 41 3 91 8 110 10 19 2 71 7 115 10 44 3 96 8 115 10 19 2 67
7 105 10 140 11 191 15 245 20 30 3 80 8 110 10 70 6 134 12 285 25 66 6 147
13 180 16 33 2 78 6 100 9 22 3 76 7 120 10 44 3 100 7 125 10 25 2 70 7 100
10 30 2 80 7 110 10 119 11 158 14 235 20 44 3 96 8 115 10 19 2 69 7 110 10
41 3 95 7 120 10 46 4 119 11 233 20 59 5 119 11 214 20 24 2 78 7 120 10 43
3 94 7 113 10 19 2 71 7 115 10 44 4 96 8 115 10 19 2 73 6 120 10 47 3 96 8
110 10 14 2 61 6 105 10 44 3 100 8 125 10 25 2 77 7 115 10 39 3 86 8 105 10
19 2 76 7 125 10 50 3 104 8 120 10 17 2 62 7 100 10 90 8 166 14 235 21 30 3
80 7 110 9 67 6 167 14 235 20 28 3 77 7 110 10 33 3 84 7 113 10 76 7 148 14
227 20 127 10 179 15 233 20 59 6 122 11 237 21 44 4 94 8 110 10 17 1 66 6
110 9 44 3 96 8 115 10 19 2 73 7 120 10 47 3 96 8 110 10 14 2 59 6 100 10
41 3 95 8 120 10 25 2 79 7 120 10 41 3 91 8 110 10 35 4 118 12 235 20 33 3
87 7 120 10 82 8 137 13 225 20 41 3 91 8 110 10 34 4 127 12 225 20 28 2 82
6 120 10 39 3 95 8 125 10 30 3 78 7 105 10 122 12 228 21 335 30 41 3 95 8
120 10 25 3 77 7 115 10 39 3 88 7 110 9 52 5 158 15 243 22 37 3 83 7 102 9
19 2 69 7 110 10 41 3 95 8 120 10 61 6 152 14 230 20 36 3 85 7 110 10 25 2
79 7 120 10 41 3 91 8 110 10 19 3 71 7 115 10 44 3 96 7 115 9 35 5 105 11
235 21 39 3 88 8 110 10 22 2 76 7 120 10 44 4 91 8 105 10 14 2 63 6 110 10
47 3 101 8 120 10 19 2 69 7 110 10 101 8 188 15 230 20 19 2 71 7 115 10 44
4 96 8 115 10 19 2 73 6 120 10 47 3 96 8 110 10 14 2 64 6 111 10 47 3 95 7
105 9 10 2 64 7 119 10 55 4 111 9 125 11 14 2 65 6 114 10 50 4 97 8 105 10
9 1 59 6 111 10 52 4 106 8 120 9 23 3 25 7 24 47 0 24 -4 87 -8 139 -5 52
-10 111 -11 130 -2 19 -6 64 -9 100 -3 36 -8 90 -11 120 -3 30 -7 82 -10 114
-3 32 -8 82 -10 110 -3 28 -7 80 -10 116 -10 122 -14 173 -30 345 -12 136 -17
190 -31 355 -7 83 -20 235 -29 320 -3 30 -7 87 -10 125 -3 39 -7 90 -10 115
-6 65 -16 178 -20 230 -9 103 -15 178 -20 230 -2 30 -7 84 -10 120 -3 36 -8
81 -10 100 -3 19 -7 71 -10 115 -3 44 -7 96 -10 115 -2 19 -7 69 -10 110 -3
41 -8 95 -10 120 -2 25 -7 79 -11 120 -3 41 -8 93 -10 115 -2 22 -6 69 -9 105
-2 36 -7 90 -10 120 -2 30 -7 82 -10 115 -3 33 -8 85 -10 115 -9 92 -14 151
-20 235 -3 44 -8 94 -10 110 -2 17 -7 71 -10 120 -3 50 -8 101 -10 115 -2 14
-7 63 -10 110 -4 47 -8 99 -10 115 -2 17 -6 66 -10 110 -3 44 -8 94 -10 110
-2 17 -7 64 -10 105 -3 41 -7 98 -10 125 -2 28 -7 79 -10 115 -13 155 -15 178
-20 235 -3 33 -7 83 -10 110 -3 28 -7 82 -10 120 -7 80 -10 121 -20 220 -10
103 -13 140 -20 240 -4 50 -8 101 -10 115 -2 14 -6 59 -10 100 -3 41 -8 93
-10 115 -3 22 -7 74 -10 115 -3 41 -8 95 -10 120 -2 25 -7 77 -10 115 -3 39
-8 88 -10 110 -2 22 -7 76 -10 120 -3 44 -7 96 -10 115 -2 19 -7 69 -10 110
-4 41 -8 98 -11 125 -6 68 -12 136 -19 220 -3 39 -8 90 -10 115 -2 25 -7 79
-10 120 -4 41 -8 86 -10 100 -2 14 -6 66 -10 115 -3 50 -8 101 -10 115 -2 14
-7 63 -10 110 -4 47 -8 101 -10 120 -2 19 -6 71 -9 115 -4 44 -8 91 -11 105
-2 14 -7 67 -10 118 -3 52 -7 108 -10 125 -2 18 -7 64 -10 102 -3 39 -7 88 -9
110 -3 22 -7 79 -11 127 -3 48 -8 98 -10 110 -2 13 -6 65 -10 116 -3 51 -8
100 -9 110 -2 9 -7 62 -10 117 -4 55 -9 111 -11 125 -2 14 -6 59 -10 100 -3
41 -8 95 -10 120 -3 25 -7 74 -10 110 -3 36 -7 85 -10 110 -2 25 -6 81 -10
125 -3 44 -7 96 -9 115 -2 19 -7 71 -11 115 -3 44 -8 91 -10 105 -2 14 -6 66
-10 115 -3 50 -8 106 -10 125 -2 19 -7 71 -10 115 -3 44 -8 91 -10 105 -2 14
-6 66 -10 115 -3 50 -8 106 -10 125 -2 19 -6 67 -10 105 -3 39 -8 94 -10 123
-3 28 -7 76 -10 106 -3 30 -8 81 -10 113 -6 88 -15 184 -20 223 -2 19 -7 78
-10 130 -4 52 -8 102 -10 110 -2 8 -7 56 -10 105 -3 50 -7 101 -9 115 -3 14
-7 67 -11 118 -3 51 -8 102 -10 112 -2 10 -6 58 -9 106 -4 49 -8 105 -11 124
-2 19 -7 71 -10 115 -3 44 -8 98 -10 120 -6 59 -14 160 -20 240 -3 39 -7 86
-10 105 -2 19 -7 71 -11 115 -9 130 -13 177 -18 215 -3 19 -8 71 -11 115 -6
83 -11 147 -20 238 -3 28 -7 77 -10 107 -2 30 -7 84 -10 120 -3 36 -8 92 -10
125 -3 33 -8 80 -10 105 -3 25 -7 77 -10 115 -3 39 -8 90 -10 115 -2 25 -7 79
-11 120 -3 41 -7 91 -9 110 -2 19 -6 71 -9 115 -4 44 -9 101 -12 128 -3 26 -7
69 -9 95 -6 85 -16 196 -20 222 -2 14 -6 70 -10 125 -4 55 -9 108 -10 117 -2
10 -6 55 -10 101 -3 45 -8 102 -10 127 -2 25 -7 72 -10 105 -2 33 -7 89 -11
125 -3 36 -7 87 -10 115 -2 27 -6 75 -9 105 -3 30 -7 84 -10 119 -2 34 -7 87
-10 117 -13 131 -16 163 -20 224 -11 146 -16 206 -20 230 -2 14 -6 66 -10 115
-3 50 -8 101 -10 115 -2 14 -6 61 -10 105 -5 74 -8 109 -20 240 -11 119 -15
164 -20 223 -5 58 -11 128 -20 232 -2 25 -7 74 -10 110 -3 36 -8 92 -11 125
-4 33 -6 70 -5 83 1 22 -2 23 -64 21 -36 -1 -66 -3 -68 -5z m-2236 -2822 c0
-9 2 -26 3 -37 4 -26 15 -154 21 -225 2 -30 7 -83 10 -117 3 -35 8 -93 11
-130 3 -38 7 -84 9 -103 2 -19 7 -71 10 -115 3 -44 8 -96 10 -115 3 -19 7 -69
10 -110 3 -41 7 -91 10 -110 2 -19 7 -71 10 -115 4 -44 8 -96 10 -115 2 -19 6
-71 10 -115 3 -44 8 -96 10 -115 2 -19 7 -71 10 -115 3 -44 7 -91 10 -105 2
-14 6 -65 10 -115 3 -49 8 -106 10 -125 2 -19 7 -73 10 -120 4 -47 8 -96 10
-110 2 -14 6 -63 10 -110 3 -47 8 -101 10 -120 3 -19 7 -66 10 -105 3 -38 7
-92 10 -120 6 -60 11 -117 25 -290 6 -71 13 -148 15 -170 5 -49 16 -164 20
-225 5 -69 15 -180 20 -225 3 -22 7 -75 10 -117 3 -42 7 -92 9 -110 3 -18 8
-69 11 -113 3 -44 8 -96 9 -115 9 -84 18 -189 21 -240 3 -30 7 -84 11 -120 3
-36 7 -81 9 -100 6 -81 16 -198 20 -235 2 -22 7 -71 10 -110 3 -38 7 -86 10
-105 2 -19 7 -75 10 -125 4 -49 8 -101 10 -115 2 -14 7 -65 11 -115 3 -49 8
-103 9 -120 12 -137 16 -186 20 -225 2 -25 7 -76 10 -115 3 -38 7 -88 10 -110
2 -22 7 -71 10 -110 3 -38 8 -88 10 -110 2 -22 7 -76 10 -120 3 -44 8 -96 10
-115 8 -81 17 -188 21 -235 2 -27 6 -75 8 -105 3 -30 8 -86 11 -125 3 -38 8
-90 10 -115 3 -25 7 -70 10 -101 3 -31 7 -85 10 -120 2 -35 7 -89 10 -119 2
-30 7 -80 10 -110 2 -30 7 -80 9 -110 3 -30 8 -83 11 -117 3 -35 7 -89 10
-120 3 -32 7 -87 10 -123 3 -36 8 -83 10 -105 3 -22 7 -69 10 -105 3 -36 7
-90 10 -120 3 -30 7 -82 10 -115 2 -33 7 -87 10 -120 11 -111 14 -150 25 -280
6 -71 13 -152 15 -180 3 -27 7 -76 10 -107 3 -32 7 -82 10 -110 2 -29 7 -81
10 -115 3 -35 7 -89 10 -120 3 -32 7 -87 10 -123 3 -36 7 -83 10 -105 2 -22 7
-71 10 -110 3 -38 8 -92 10 -120 11 -119 17 -193 20 -240 3 -27 6 -72 9 -100
8 -84 16 -167 21 -230 9 -108 16 -189 20 -235 7 -66 14 -146 20 -225 3 -38 8
-88 10 -110 2 -22 7 -76 10 -120 3 -44 8 -91 10 -105 2 -14 7 -63 10 -110 3
-47 7 -96 9 -110 3 -14 7 -70 11 -125 4 -55 8 -106 10 -115 1 -8 6 -55 10
-105 3 -49 8 -103 9 -120 2 -16 6 -66 10 -110 4 -44 11 -127 16 -185 6 -58 13
-134 15 -170 6 -70 14 -159 20 -230 2 -25 7 -76 10 -115 4 -38 8 -86 10 -105
2 -19 6 -71 9 -115 4 -44 9 -96 11 -115 2 -19 7 -71 10 -115 3 -44 8 -98 10
-120 2 -22 7 -71 10 -110 3 -38 8 -88 10 -110 2 -22 7 -82 11 -132 l7 -93 -34
-1 c-19 0 -42 -2 -52 -4 -10 -2 -55 -6 -100 -10 -45 -4 -98 -8 -117 -10 -19
-2 -71 -6 -115 -9 -44 -4 -96 -8 -115 -11 -46 -6 -161 -16 -231 -20 -30 -2
-78 -6 -105 -9 -27 -3 -80 -8 -119 -11 -38 -3 -90 -7 -115 -10 -42 -4 -74 -7
-235 -20 -33 -3 -82 -7 -110 -10 -27 -2 -79 -7 -115 -10 -36 -3 -90 -8 -120
-11 -54 -4 -94 -8 -220 -19 -36 -3 -92 -8 -125 -11 -33 -2 -80 -7 -105 -9 -25
-3 -76 -7 -115 -10 -38 -3 -90 -8 -115 -10 -79 -8 -153 -14 -230 -20 -41 -3
-91 -8 -110 -10 -19 -2 -71 -6 -115 -10 -44 -3 -96 -8 -115 -10 -19 -2 -73 -7
-120 -10 -47 -3 -96 -8 -110 -10 -14 -2 -63 -6 -110 -10 -47 -3 -101 -8 -120
-10 -19 -2 -69 -7 -110 -11 -41 -3 -93 -8 -115 -10 -22 -1 -74 -6 -115 -9 -41
-3 -97 -8 -125 -10 -27 -3 -75 -8 -105 -10 -30 -2 -82 -6 -115 -9 -33 -3 -87
-8 -120 -11 -33 -3 -80 -7 -105 -10 -25 -2 -76 -7 -115 -10 -38 -3 -90 -8
-115 -10 -25 -2 -76 -7 -115 -10 -38 -3 -90 -7 -115 -10 -25 -2 -76 -7 -115
-10 -67 -5 -106 -9 -220 -19 -27 -3 -84 -8 -125 -12 -41 -3 -91 -7 -110 -9
-37 -4 -107 -10 -340 -30 -41 -3 -95 -8 -120 -9 -64 -6 -178 -16 -225 -21 -22
-3 -74 -7 -115 -10 -76 -6 -155 -13 -222 -20 -20 -2 -79 -6 -130 -10 -51 -4
-100 -8 -108 -10 -8 -2 -55 -6 -105 -9 -49 -4 -108 -9 -130 -11 -22 -3 -71 -7
-110 -10 -67 -5 -111 -9 -227 -20 -86 -8 -169 -15 -233 -21 -33 -2 -80 -7
-105 -9 -25 -3 -76 -7 -115 -10 -38 -3 -90 -7 -115 -10 -25 -3 -74 -7 -110
-10 -36 -2 -92 -7 -125 -10 -124 -12 -164 -15 -221 -20 -32 -3 -80 -7 -105 -9
-25 -2 -83 -7 -130 -11 -46 -3 -100 -8 -119 -10 -19 -2 -64 -7 -100 -10 -36
-3 -90 -7 -120 -10 -30 -3 -83 -7 -117 -10 -165 -14 -191 -16 -233 -20 -25 -2
-74 -7 -110 -10 -36 -4 -81 -8 -100 -10 -19 -2 -73 -6 -120 -10 -47 -3 -101
-8 -120 -10 -19 -2 -69 -6 -110 -10 -41 -3 -91 -8 -110 -10 -19 -1 -71 -6
-115 -10 -44 -3 -102 -8 -130 -10 -27 -3 -77 -7 -110 -10 -33 -3 -84 -7 -112
-10 -99 -9 -158 -14 -238 -20 -44 -4 -91 -8 -105 -10 -14 -2 -63 -7 -110 -10
-80 -6 -104 -8 -232 -20 -29 -2 -82 -7 -118 -10 -36 -3 -85 -8 -110 -10 -25
-2 -79 -7 -120 -10 -41 -3 -96 -8 -122 -11 -27 -2 -69 -6 -95 -8 -27 -3 -82
-8 -123 -11 -41 -4 -91 -8 -110 -10 -19 -2 -71 -6 -115 -10 -44 -3 -96 -8
-115 -10 -19 -2 -71 -7 -115 -10 -44 -4 -96 -8 -115 -10 -19 -2 -73 -6 -120
-10 -47 -4 -96 -8 -110 -10 -14 -2 -61 -7 -105 -10 -81 -6 -137 -11 -235 -20
-30 -3 -82 -7 -115 -10 -33 -2 -82 -7 -110 -9 -27 -3 -86 -8 -130 -11 -44 -4
-91 -8 -105 -10 -24 -4 -92 -10 -225 -20 -33 -2 -90 -7 -127 -10 -52 -4 -68
-3 -69 7 -1 7 -3 22 -4 33 -1 11 -5 61 -9 110 -4 50 -9 106 -11 125 -3 19 -7
64 -9 100 -7 83 -15 171 -21 235 -3 28 -7 82 -10 120 -3 39 -7 90 -10 115 -5
49 -12 127 -20 230 -6 81 -15 185 -20 225 -2 17 -6 66 -10 110 -3 44 -8 98
-10 120 -3 22 -7 72 -10 110 -3 39 -8 90 -10 115 -5 46 -10 110 -20 240 -4 41
-8 86 -10 100 -2 14 -7 64 -10 111 -3 47 -7 94 -9 105 -2 10 -7 64 -10 120 -4
55 -8 112 -11 125 -2 13 -7 62 -10 109 -12 148 -13 164 -19 230 -12 129 -16
176 -21 240 -3 36 -8 83 -10 105 -2 22 -7 72 -10 110 -5 64 -9 114 -20 235 -2
25 -7 74 -10 110 -3 36 -7 90 -10 120 -3 30 -7 87 -10 125 -3 39 -8 88 -10
110 -2 22 -7 72 -10 110 -3 39 -7 90 -10 115 -5 58 -14 161 -20 225 -2 28 -6
77 -9 110 -3 33 -8 86 -11 118 -6 71 -14 155 -20 227 -3 30 -8 87 -10 125 -3
39 -7 86 -10 105 -2 19 -6 71 -10 115 -3 44 -8 96 -10 115 -3 19 -7 69 -10
110 -3 41 -8 95 -10 120 -4 44 -8 94 -21 240 -3 41 -7 82 -9 90 -1 8 -6 60 -9
115 -4 55 -9 111 -11 125 -2 14 -6 65 -10 113 -4 49 -8 98 -10 110 -2 12 -6
63 -10 112 -3 50 -8 106 -10 125 -2 19 -7 71 -10 115 -11 134 -14 168 -19 220
-3 28 -8 82 -11 120 -3 39 -8 88 -10 110 -2 22 -7 76 -10 120 -3 44 -8 94 -10
110 -2 17 -7 64 -10 105 -3 41 -8 100 -10 130 -12 133 -15 159 -20 225 -3 39
-8 90 -10 115 -2 25 -7 77 -10 115 -3 39 -7 86 -10 105 -2 19 -7 76 -10 125
-3 50 -8 101 -10 115 -2 14 -6 61 -10 105 -3 44 -8 98 -10 120 -3 22 -7 72
-10 110 -6 68 -11 129 -20 230 -6 63 -15 174 -20 243 -2 29 -7 77 -10 107 -15
159 -15 160 -30 340 -3 39 -8 90 -10 115 -9 99 -16 184 -20 238 -3 31 -7 77
-9 102 -3 25 -8 74 -11 110 -12 140 -15 177 -20 230 -6 69 -11 131 -25 295 -6
72 -12 146 -15 165 -2 19 -7 71 -10 115 -3 44 -8 96 -10 115 -4 33 -13 146
-20 235 -3 37 -8 95 -20 215 -2 25 -7 75 -10 113 -9 117 -17 201 -21 237 -2
19 -6 73 -10 120 -3 47 -7 96 -9 110 -2 14 -7 63 -10 110 -4 47 -8 99 -9 115
-2 17 -6 64 -10 105 -4 41 -9 100 -12 130 -2 30 -6 75 -8 100 -2 25 -7 81 -11
125 -3 44 -8 96 -11 115 -2 19 -7 69 -10 110 -7 99 -11 148 -20 250 -13 141
-11 203 6 205 8 1 56 6 105 10 158 12 179 14 230 20 28 2 82 7 120 10 39 3 88
7 110 10 22 2 76 7 120 10 44 4 96 8 115 10 19 2 73 6 120 10 47 3 96 8 110
10 14 2 66 7 115 10 50 3 106 8 125 11 19 2 64 6 100 9 74 5 164 13 230 20 25
3 74 7 110 10 79 6 152 12 290 25 58 5 139 12 180 15 41 3 86 8 100 10 14 2
70 7 124 10 55 4 107 8 115 10 9 1 57 6 106 9 50 4 106 9 125 11 19 2 67 7
105 10 39 3 90 8 115 10 25 3 77 7 115 10 39 3 90 7 115 9 41 4 73 7 240 22
30 2 78 7 105 9 28 3 75 7 105 10 30 2 84 7 120 10 36 3 92 8 125 11 64 5 142
12 215 19 72 6 159 14 240 21 41 3 93 8 115 10 22 2 74 6 115 9 41 3 91 8 110
10 19 2 69 7 110 10 41 3 95 8 120 10 25 3 74 7 110 10 99 8 180 15 230 20 58
6 134 13 235 20 44 3 96 8 115 10 19 3 67 7 105 10 39 3 88 8 110 10 22 2 78
7 125 10 47 4 99 8 115 10 17 1 66 6 110 9 44 4 96 9 115 11 19 2 73 7 120 10
47 3 92 8 100 10 8 2 62 7 120 10 58 4 113 9 124 11 10 2 57 6 105 9 47 3 102
7 121 10 19 2 67 7 105 10 39 3 90 8 115 10 25 2 79 7 120 10 41 3 91 8 110
10 33 4 117 11 225 20 108 9 183 15 235 20 77 7 165 15 233 20 31 2 76 7 100
9 23 3 78 8 122 11 44 3 91 8 105 10 14 2 66 7 115 10 50 3 106 8 125 10 19 3
67 7 105 10 70 5 149 12 235 20 25 2 79 7 120 10 41 3 91 8 110 10 19 2 69 7
110 10 41 3 95 8 120 10 25 3 74 7 110 10 36 3 88 7 115 10 28 2 82 7 120 10
39 3 88 8 110 10 47 5 132 12 230 20 39 3 90 7 115 10 25 2 74 7 110 10 72 6
161 13 230 20 25 2 79 7 120 10 41 3 95 8 120 10 64 7 134 14 213 19 37 3 91
8 120 11 67 7 155 14 237 20 36 3 83 7 105 10 22 2 72 7 110 10 39 3 90 8 115
10 25 2 79 7 120 10 76 6 140 12 220 20 25 2 81 7 125 10 44 3 96 7 115 10 19
2 71 7 115 11 44 3 94 8 110 9 17 2 70 6 120 10 49 4 101 8 115 10 14 2 63 6
110 10 47 3 101 8 120 10 19 3 67 7 105 10 39 3 90 7 115 10 44 4 72 7 235 20
44 4 81 8 82 9 1 1 11 2 23 3 12 1 20 -4 21 -15z"/>
<path d="M11078 13765 c-2 -1 -46 -6 -98 -9 -52 -4 -108 -9 -125 -11 -29 -4
-94 -9 -240 -21 -38 -3 -81 -7 -93 -9 -13 -2 -72 -7 -130 -11 -59 -3 -109 -7
-112 -9 -3 -2 -48 -6 -100 -10 -101 -7 -124 -9 -238 -20 -41 -4 -90 -8 -110
-10 -63 -5 -195 -16 -232 -21 -19 -2 -71 -6 -115 -9 -44 -3 -91 -7 -105 -10
-14 -2 -68 -7 -120 -11 -52 -3 -106 -8 -120 -10 -14 -1 -65 -6 -113 -9 -48 -4
-95 -8 -105 -10 -9 -2 -38 -4 -63 -4 -41 -1 -48 -4 -57 -28 -11 -29 -51 -156
-57 -183 -2 -8 -29 -100 -60 -205 -31 -104 -72 -242 -91 -305 -18 -63 -70
-236 -114 -385 -44 -148 -83 -277 -85 -285 -21 -73 -45 -157 -125 -425 -51
-170 -97 -323 -102 -340 -5 -16 -11 -37 -13 -45 -2 -8 -42 -145 -90 -305 -47
-159 -88 -297 -90 -305 -2 -8 -13 -44 -24 -80 -10 -36 -31 -103 -44 -150 -14
-47 -44 -148 -67 -225 -66 -224 -140 -473 -165 -560 -13 -44 -42 -141 -65
-215 -22 -74 -43 -144 -45 -156 -3 -11 -14 -50 -25 -85 -12 -35 -41 -131 -65
-214 -24 -82 -76 -258 -115 -390 -40 -132 -76 -256 -82 -275 -5 -19 -71 -240
-145 -490 -74 -250 -145 -491 -158 -535 -22 -73 -124 -418 -146 -490 -5 -16
-9 -30 -9 -31 0 -2 208 15 260 21 19 2 67 7 105 10 39 4 90 8 115 10 77 7 162
14 240 20 41 3 91 8 110 10 19 3 71 7 115 10 44 4 96 8 115 10 19 3 73 7 120
10 47 3 92 8 100 10 8 2 58 6 110 10 52 3 111 8 130 10 34 4 91 9 222 20 35 3
86 7 113 10 28 2 82 7 120 10 39 3 86 8 105 10 38 4 197 18 218 18 6 0 12 3
13 6 1 9 5 25 39 166 18 72 33 137 35 145 2 8 22 92 45 185 76 313 82 340 87
364 2 14 6 28 8 31 2 4 7 22 10 41 9 48 -4 43 136 54 52 4 105 9 119 10 14 2
63 6 110 10 47 4 103 9 125 11 22 2 78 6 125 10 46 3 93 8 104 10 10 2 58 6
105 9 47 4 96 8 107 10 12 2 66 6 120 10 55 4 108 9 119 11 11 2 62 6 115 10
52 3 109 7 125 9 17 3 64 7 105 10 41 4 84 8 96 10 11 2 65 6 120 10 54 4 106
9 115 10 9 2 63 6 120 10 l104 6 32 -73 c18 -40 50 -111 72 -158 21 -47 62
-137 91 -200 29 -63 66 -144 82 -180 17 -36 52 -114 80 -175 27 -60 54 -115
59 -121 5 -7 22 -11 37 -9 15 2 65 6 112 10 47 4 96 8 110 10 14 3 66 7 115
10 50 3 106 8 125 10 41 5 139 13 340 30 101 9 172 15 210 20 19 2 71 6 115
10 115 8 195 15 235 20 19 2 72 7 116 10 45 4 94 8 110 10 16 2 72 6 124 10
52 4 106 8 120 11 14 2 63 6 110 9 47 3 99 7 115 10 17 2 71 7 120 11 50 4 98
9 108 10 9 1 25 2 35 3 15 1 -20 79 -196 434 -118 237 -278 563 -357 722 -78
160 -254 515 -390 790 -136 275 -335 678 -442 895 -108 217 -295 595 -416 840
-436 883 -634 1284 -879 1780 -404 818 -392 795 -416 796 -12 1 -23 0 -24 -1z
m-921 -2428 c58 -135 213 -500 327 -772 70 -165 133 -313 141 -330 34 -76 154
-362 157 -374 2 -10 -7 -15 -27 -16 -32 -2 -178 -14 -235 -20 -19 -2 -71 -6
-115 -10 -44 -3 -100 -8 -125 -10 -44 -5 -84 -8 -225 -20 -38 -3 -88 -7 -110
-10 -143 -16 -205 -17 -201 -4 8 23 108 442 111 466 2 11 6 30 9 41 4 11 9 29
11 39 2 10 13 59 25 108 12 50 23 97 25 105 2 8 26 110 54 227 28 117 53 222
55 235 3 13 17 70 31 128 14 58 27 116 30 130 3 14 11 48 19 77 8 28 11 54 8
57 -3 3 -1 6 4 6 5 0 19 -24 31 -53z"/>
</g>
</svg>
